<svg id="Layer_1" data-name="Layer 1" xmlns="http://www.w3.org/2000/svg" xmlns:xlink="http://www.w3.org/1999/xlink" viewBox="0 0 200 54.72"><defs><style>.cls-1{fill:none;}.cls-2{fill:url(#linear-gradient);}.cls-3{clip-path:url(#clip-path);}.cls-4{fill:#fff;}.cls-5{fill:#00376e;}.cls-6{fill:#003a6c;}.cls-7{fill:#0081f2;}.cls-8{fill:#ff8d00;}</style><linearGradient id="linear-gradient" x1="22.81" y1="47.52" x2="32.02" y2="9.33" gradientTransform="matrix(1, 0, 0, -1, 0, 56.01)" gradientUnits="userSpaceOnUse"><stop offset="0" stop-color="#00c6f9"/><stop offset="0.42" stop-color="#00c6f9"/><stop offset="0.79" stop-color="#009ce0"/><stop offset="1" stop-color="#0089d5"/></linearGradient><clipPath id="clip-path"><rect class="cls-1" width="54.72" height="54.72" rx="13.74" ry="13.74"/></clipPath></defs><title>acclogolandscape</title><rect class="cls-2" width="54.72" height="54.72" rx="13.74" ry="13.74"/><g class="cls-3"><path class="cls-4" d="M14.18,17.64a2.91,2.91,0,0,0-3.11-.93c-1,.39-1.65,2.12-1,3.73,1.29,3.27,5,2.87,5,2.87a11.52,11.52,0,0,0,5,6.56c1.22,3.79,1.52,8,2.48,9.08,2.2,2.55,3.61,4.39,3.61,4.39L30,38c-.41-2.76-1.82-7.75-1.45-8.05,3.49-2.9,3.37-7.87,3.37-7.87a2.9,2.9,0,0,0,2.52-4,2.53,2.53,0,0,0-3.35-1.66s.61-10-8.8-8.94c-4.48.49-7.72,2.69-8.57,4.91C13,14.33,14.18,17.64,14.18,17.64Z"/><path class="cls-5" d="M26.13,43.78a.44.44,0,0,1-.35-.17s-1.43-1.86-3.59-4.36c-.62-.72-1-2.35-1.38-4.41-.3-1.45-.64-3.09-1.13-4.66a12,12,0,0,1-4.91-6.4h0a5.27,5.27,0,0,1-5.09-3.16,4,4,0,0,1,0-3,2.35,2.35,0,0,1,1.25-1.3,2.92,2.92,0,0,1,2.47.16,7.89,7.89,0,0,1-.06-4.15c1-2.59,4.65-4.72,8.93-5.19,2.83-.31,5.07.31,6.68,1.83,2.31,2.2,2.61,5.61,2.63,7a3.1,3.1,0,0,1,1.77.22A3,3,0,0,1,34.88,18a3.39,3.39,0,0,1-.36,3.11,3.31,3.31,0,0,1-2.15,1.4c-.05,1.27-.46,5.18-3.43,7.73a29.09,29.09,0,0,0,.69,3.68c.32,1.43.64,2.9.82,4a.44.44,0,0,1-.08.33l-3.89,5.3a.45.45,0,0,1-.35.18Zm-11-20.91a.44.44,0,0,1,.43.32,11.18,11.18,0,0,0,4.74,6.29.44.44,0,0,1,.21.25,48,48,0,0,1,1.21,4.91c.37,1.78.72,3.47,1.19,4,1.54,1.79,2.7,3.24,3.26,3.94l3.43-4.68c-.17-1.08-.48-2.47-.78-3.8-.81-3.62-.87-4.17-.49-4.48,3.28-2.73,3.21-7.47,3.21-7.51a.44.44,0,0,1,.43-.45,2.42,2.42,0,0,0,1.87-1.06A2.53,2.53,0,0,0,34,18.3,2.19,2.19,0,0,0,33,17a2.47,2.47,0,0,0-1.7-.05.44.44,0,0,1-.6-.44s.23-4.43-2.35-6.88c-1.41-1.34-3.41-1.88-6-1.59-4.62.51-7.49,2.75-8.2,4.62-.64,1.71.43,4.84.44,4.88a.44.44,0,0,1-.76.43,2.44,2.44,0,0,0-2.61-.79,1.5,1.5,0,0,0-.75.83,3.08,3.08,0,0,0,0,2.33C11.64,23.2,15,22.88,15,22.87Z"/><path class="cls-5" d="M11.17,18.16a1,1,0,0,1,1-.35,1.66,1.66,0,0,1,.92.51,1.89,1.89,0,0,1,.47.84,1.73,1.73,0,0,1,0,1v0a0,0,0,0,1,0,0l0,0c-.13-.24-.26-.49-.41-.72a3.87,3.87,0,0,0-.5-.64,2,2,0,0,0-.64-.48,1.23,1.23,0,0,0-.78-.1,0,0,0,0,1,0,0h0a0,0,0,0,1,0,0Z"/><path class="cls-5" d="M29,16.15a.44.44,0,0,1-.41-.28,2.1,2.1,0,0,0-2.67-1.33.44.44,0,0,1-.27-.85,3,3,0,0,1,3.76,1.84.44.44,0,0,1-.41.61Z"/><path class="cls-5" d="M17.61,16a.45.45,0,0,1-.44-.43,2.58,2.58,0,0,1,1-1.51A3,3,0,0,1,21,13.69a.44.44,0,0,1-.26.85,2.3,2.3,0,0,0-1.8.08,2.07,2.07,0,0,0-.9,1,.45.45,0,0,1-.43.37Z"/><path class="cls-5" d="M19.23,17c.11.65.51,1.12.9,1.06s.62-.64.51-1.29-.51-1.12-.9-1.06S19.13,16.3,19.23,17Z"/><path class="cls-5" d="M26.53,17.17c.1.6.47,1,.83,1s.57-.59.47-1.19-.47-1-.83-1S26.43,16.58,26.53,17.17Z"/><path class="cls-5" d="M24.91,22.16a.41.41,0,0,1-.14-.79.22.22,0,0,0,.13-.09c.08-.2-.18-.79-.41-1.31a12.91,12.91,0,0,1-.59-1.53,3.82,3.82,0,0,1-.13-2.19.41.41,0,0,1,.8.15l0,.08a3.1,3.1,0,0,0,.12,1.73,12.14,12.14,0,0,0,.56,1.43c.35.8.63,1.43.41,2a1,1,0,0,1-.59.54Z"/><path class="cls-5" d="M29.09,28.95a3,3,0,0,1-1.19,1.6,2.42,2.42,0,0,1-.44.27A3.7,3.7,0,0,1,27,31a2.77,2.77,0,0,1-.49.15l-.5.11a5.21,5.21,0,0,1-2-.11,6.77,6.77,0,0,1-.92-.33,5.85,5.85,0,0,1-.83-.53h0a0,0,0,0,1,0,0h0l.89.22c.3,0,.6.11.9.14a7.21,7.21,0,0,0,1.82,0A5.46,5.46,0,0,0,27.63,30,4.19,4.19,0,0,0,29,28.91a0,0,0,0,1,.06,0Z"/><path class="cls-5" d="M31.29,20.37a3.66,3.66,0,0,1,.64,1.53,2.86,2.86,0,0,1,.07.41c0,.14,0,.27,0,.41s0,.55,0,.83a6.64,6.64,0,0,1-.35,1.61,4.93,4.93,0,0,1-.78,1.45h0a0,0,0,0,1,0,0h0a0,0,0,0,1,0,0,14.29,14.29,0,0,0,.42-1.52,12,12,0,0,0,.22-1.56,10.4,10.4,0,0,0,0-1.57,6.77,6.77,0,0,0-.27-1.55,0,0,0,0,1,0,0h0Z"/><path class="cls-5" d="M46.06,37.58s-.74,2.57-2.53,2.84c-.29,0-3.71-.18-4-.12-7.64,1.49-13.16,7.15-14.41,17l-9.51.92c-3.84.07-17.14-1.53-17.14-1.53C1.45,48.33,4.34,43.86,7,40.5A8.82,8.82,0,0,1,8.73,39l12.14-6a13.71,13.71,0,0,0,.91,2.54c2.6,6.35,8.38,4.66,7.19-.91l-.23-2.53S39.56,33.14,46.06,37.58Z"/><path class="cls-5" d="M31.16,18a1.12,1.12,0,0,1,1-.29,1.51,1.51,0,0,1,.91.47,1.59,1.59,0,0,1,.41.9,1.7,1.7,0,0,1,0,.48,1.54,1.54,0,0,1-.2.46v0a0,0,0,0,1,0,0h0v0l-.1-.37c0-.12-.08-.24-.13-.36a2.24,2.24,0,0,0-.41-.63,1.89,1.89,0,0,0-1.35-.59,0,0,0,0,1,0,0v0Z"/><path class="cls-5" d="M12.79,22.67l.75.13a6.44,6.44,0,0,0,.75.08,6.67,6.67,0,0,0,.76,0,2.71,2.71,0,0,0,.73-.13h0l.49-.21h0a0,0,0,0,1,0,0v0a1,1,0,0,1-.16.3L16,23l-.12.11h0a1.92,1.92,0,0,1-.44.2,2.31,2.31,0,0,1-.42.1l-.42,0-.41,0a3.29,3.29,0,0,1-.78-.22,2.49,2.49,0,0,1-.7-.46h0a0,0,0,0,1,0,0Z"/><path class="cls-5" d="M26,28.68a5.34,5.34,0,0,1-2-.48C20,26.56,18,21.84,18,21.64a.45.45,0,0,1,.66-.55c5.74,3.77,9.84,2.18,9.87,2.17A.45.45,0,0,1,29,24a4.46,4.46,0,0,0-.76,2.33l-.45,0,.45,0a2.51,2.51,0,0,1-1.08,2.08A2.29,2.29,0,0,1,26,28.68Zm-6.47-6a11.12,11.12,0,0,0,4.79,4.7,2.85,2.85,0,0,0,2.42.24,1.68,1.68,0,0,0,.65-1.39h0a6.42,6.42,0,0,1,.42-1.84,12.58,12.58,0,0,1-8.28-1.71Z"/><path class="cls-1" d="M14.78,18.36a3.44,3.44,0,0,1,0,.49A4.69,4.69,0,0,0,14.78,18.36Z"/><path class="cls-1" d="M26.83,9.68h0l-.09,0Z"/><path class="cls-6" d="M31.15,16.14h0c.06.23.08.34.08.34Z"/><path class="cls-5" d="M23.95,8.08a.38.38,0,0,1,.11.17c-.42,0-.88,0-1.32,0A9.93,9.93,0,0,1,23.95,8.08Z"/><path class="cls-1" d="M14.78,18.36a3.44,3.44,0,0,1,0,.49A4.69,4.69,0,0,0,14.78,18.36Z"/><path class="cls-1" d="M14.78,18.36a3.44,3.44,0,0,1,0,.49A4.69,4.69,0,0,0,14.78,18.36Z"/><path class="cls-1" d="M14.78,18.36a3.44,3.44,0,0,1,0,.49A4.69,4.69,0,0,0,14.78,18.36Z"/><path class="cls-1" d="M26.83,9.68h0l-.09,0Z"/><path class="cls-1" d="M12.39,6.37h0Z"/><path class="cls-1" d="M12.65,6.32l-.13,0Z"/><path class="cls-6" d="M10.2,12.13a5.29,5.29,0,0,1,1.49-3.42l0,0c-1.21.18-1.67-.45-1.17-.48a5.09,5.09,0,0,0,1.36-.5A8.42,8.42,0,0,0,13.15,7a18,18,0,0,0,2.07-1.85s0-.09,0-.06c-2.43,1.86-4.33,1-3.66.88a4,4,0,0,0,1.74-.77l.51-.36a9.07,9.07,0,0,1,1.66-.94,7.29,7.29,0,0,1,1.21-.4,11.55,11.55,0,0,1,2.48-.29,5.31,5.31,0,0,1-1.43-.26c-1-.39-1-1-.64-.85,1.48.53,5.5.07,7.58.76,0,0,2.9,1,3.67,3.42,0,0,4.92,1.12,3.64,9.7l-1.23.31a10.41,10.41,0,0,0-.8-4.17,4.27,4.27,0,0,0-2.4-2.46.68.68,0,0,0-.64.05h0l-.07.05a3.94,3.94,0,0,1-1.79.43c-1.67-.15-3.54-.84-5-.06s-2.11,1.79-3.57,2.5a9.51,9.51,0,0,1-1,.41l-.71.32c-1,.41-.35,3.45,0,4.82,0,.06,0,.14,0,.22a4.69,4.69,0,0,1,0,.49.87.87,0,0,1-.07.41.18.18,0,0,1-.25.06l0,0a2.36,2.36,0,0,1-.42-.58c-.57-1.13-.77-1.68-3-2A9.54,9.54,0,0,1,10.2,12.13Z"/><path class="cls-5" d="M13.85,6.8A14.27,14.27,0,0,1,9.3,8.44c-.31,0-.36.39-.14.6.87.81,2.61.8,4.07.13C15.57,8.1,13.85,6.8,13.85,6.8Z"/><path class="cls-4" d="M19.74,5.44a8.11,8.11,0,0,0-1.17.44c-.38.17-.74.4-1.11.6h0a0,0,0,0,1,0,0h0a6.35,6.35,0,0,1,5-1.95A6.77,6.77,0,0,1,26.85,6.9h0a0,0,0,0,1,0,0,0,0,0,0,1,0,0h0a7.88,7.88,0,0,0-2.15-1.27l-.39-.14a7.35,7.35,0,0,0-1.15-.28l-.25,0a6.49,6.49,0,0,0-.65-.06h-.44A6.69,6.69,0,0,0,19.74,5.44Z"/><path class="cls-4" d="M22.57,6.69A3,3,0,0,1,23,6.6h.14A4,4,0,0,1,25.37,7a3.6,3.6,0,0,1,.91.64l.21.22h0a0,0,0,0,1,0,0,0,0,0,0,1,0,0l-.2-.09a10.32,10.32,0,0,0-1-.41,7.44,7.44,0,0,0-1.29-.3,5.4,5.4,0,0,0-1.24,0h-.08a3.85,3.85,0,0,0-1.25.39h0a0,0,0,0,1,0,0h0A2.29,2.29,0,0,1,22.57,6.69Z"/><path class="cls-4" d="M12.91,8.81h0a6.12,6.12,0,0,0,2.84-1.42h0a0,0,0,0,1,0,0h0v0a2.41,2.41,0,0,1-2.88,1.44h0v0s0,0,0,0Z"/><polygon class="cls-7" points="47.23 44.73 47.23 44.73 47.23 44.73 47.23 44.73"/><path class="cls-7" d="M52,38.64c-.05.2-.11.4-.18.61.07-.2.13-.4.18-.6Z"/><path class="cls-7" d="M50.66,41.79l-2.22,4.42a1.24,1.24,0,0,1-.42.41,1.24,1.24,0,0,0,.42-.41Z"/><path class="cls-7" d="M52,49.06h0a1.24,1.24,0,0,1-.12-.18A1.24,1.24,0,0,0,52,49.06Z"/><path class="cls-7" d="M47.93,46.69a1.51,1.51,0,0,1-.72.17A1.52,1.52,0,0,0,47.93,46.69Z"/><path class="cls-7" d="M58,43.3h0l-.6-.5Z"/><path class="cls-7" d="M51.72,48.49a1.13,1.13,0,0,0,0,.18A1.13,1.13,0,0,1,51.72,48.49Z"/><path class="cls-7" d="M51.73,48.13a1,1,0,0,0,0,.18A1,1,0,0,1,51.73,48.13Z"/><path class="cls-7" d="M51,41.1a7.4,7.4,0,0,0,.4-.76,7.4,7.4,0,0,1-.4.76l-.34.68a1.77,1.77,0,0,0,0-.21A5.39,5.39,0,0,0,51,41.1Z"/><path class="cls-7" d="M38.5,51.79a1.25,1.25,0,0,0,.59-.64,6.06,6.06,0,0,1,.5-1,6.06,6.06,0,0,0-.5,1,1.25,1.25,0,0,1-.59.64,1.51,1.51,0,0,1-.44.14A1.49,1.49,0,0,0,38.5,51.79Z"/><path class="cls-6" d="M52.28,37A8.48,8.48,0,0,1,52,38.64h0A8.55,8.55,0,0,0,52.28,37Z"/><path class="cls-6" d="M40.56,38.92a3.51,3.51,0,0,1,0-.37l.08-.47-.08.47A3.51,3.51,0,0,0,40.56,38.92Z"/><path class="cls-6" d="M29.79,50.59a1.09,1.09,0,0,0,0,.53,1.09,1.09,0,0,1,0-.53,13.73,13.73,0,0,1,5.67-8.52A13.72,13.72,0,0,0,29.79,50.59Z"/><path class="cls-6" d="M29.83,51.15a1.34,1.34,0,0,0,.66.74A1.34,1.34,0,0,1,29.83,51.15Z"/><path class="cls-5" d="M29.83,51.12a1.09,1.09,0,0,1,0-.53,13.73,13.73,0,0,1,5.67-8.52A16.17,16.17,0,0,1,37.25,41l.81-.41c.82-.39,2.51-1.72,3.36-2,0,0,9.67-2.72,10.38,1.16,0,.06-1.12,2-1.12,2.07h0l-2.22,4.42a1.24,1.24,0,0,1-.42.41l-.09.06h0a1.52,1.52,0,0,1-.72.17h-.15a8.47,8.47,0,0,0-4.86.9,6.79,6.79,0,0,0-2.62,2.4,6.06,6.06,0,0,0-.5,1,1.25,1.25,0,0,1-.59.64,1.49,1.49,0,0,1-.44.14l-.25,0-6.53.11a1.59,1.59,0,0,1-.77-.19,1.34,1.34,0,0,1-.66-.74Z"/><path class="cls-8" d="M41.38,35.29c-.11.65-.59,2.25-.69,2.79l-.08.47a3.71,3.71,0,0,0,0,1h0a21.49,21.49,0,0,0-2.5,1l-.81.41a16.17,16.17,0,0,0-1.79,1.11,13.72,13.72,0,0,0-5.67,8.52,1.09,1.09,0,0,0,0,.53.05.05,0,0,0,0,0,1.34,1.34,0,0,0,.66.74,1.59,1.59,0,0,0,.78.19L37.81,52l.25,0a1.51,1.51,0,0,0,.44-.14,1.25,1.25,0,0,0,.59-.64,6.06,6.06,0,0,1,.5-1,6.83,6.83,0,0,1,2.62-2.4,8.47,8.47,0,0,1,4.86-.9h.15a1.51,1.51,0,0,0,.72-.17h0l.09-.06a1.24,1.24,0,0,0,.42-.41l2.21-4.42h0L51,41.1a7.4,7.4,0,0,0,.4-.76c.12-.25.23-.51.33-.8,0-.1.06-.2.1-.3s.13-.4.18-.61A8.48,8.48,0,0,0,52.28,37c0-.17-.07-.93-.07-1.1a12.18,12.18,0,0,1,6.39,5.7S57,52.17,56.91,52.37l-13.36,5L23.63,61.15C21.79,41.94,36.52,35.48,41.38,35.29Z"/><path class="cls-4" d="M33.28,40.86a22.66,22.66,0,0,0-6.36,11.09,0,0,0,0,1,0,0h0a0,0,0,0,1,0,0h0a10.62,10.62,0,0,1,.45-3.31A15,15,0,0,1,27.85,47c.22-.51.48-1,.75-1.5s.59-.95.92-1.4a15.13,15.13,0,0,1,1.08-1.28,10.56,10.56,0,0,1,2.63-2.06h0a0,0,0,0,1,0,.06Z"/><path class="cls-8" d="M52.21,35.93s-6.52-3.05-15.17.46l1.56,3.9s8.7-3.59,12.81.06c3.68,3.27,2.15-1.2,2.15-1.2Z"/><path class="cls-4" d="M42,35s-1.59,4.74-.4,5.43S46,40,46,40l.29-3.49-.66-1.86-2.41.08Z"/><path class="cls-4" d="M41.07,39.92a1.6,1.6,0,0,0-.14,2.47c.81.58,1.51.16,2.45.55a5.69,5.69,0,0,0,2.22.55.89.89,0,0,0,.87-.66c.12-.58-.42-1.11-1.15-1.47"/><path class="cls-5" d="M45.53,43.91a6.44,6.44,0,0,1-2.32-.58,2.72,2.72,0,0,0-1-.17,2.52,2.52,0,0,1-1.54-.43,1.71,1.71,0,0,1-.7-1.51,2.1,2.1,0,0,1,.87-1.66.43.43,0,0,1,.44.73h0a1.31,1.31,0,0,0-.46,1,.86.86,0,0,0,.35.79,1.69,1.69,0,0,0,1.07.27,3.47,3.47,0,0,1,1.3.23,5.13,5.13,0,0,0,2,.52.47.47,0,0,0,.46-.33c.08-.36-.43-.75-.93-1a.43.43,0,0,1,.36-.77h0c1,.51,1.53,1.22,1.38,1.94a1.31,1.31,0,0,1-1.27,1Z"/><path class="cls-4" d="M47.92,41a1.1,1.1,0,0,0,1.25.45c1.69-.34,3.38-2.73,2.37-5.88a1.79,1.79,0,0,0-1.63-1.3,2,2,0,0,0-2.06-.92,1.85,1.85,0,0,0-2.31-.83,1.56,1.56,0,0,0-1.8-.39A3.59,3.59,0,0,0,42,34.86"/><path class="cls-5" d="M48.84,42a1.47,1.47,0,0,1-1.3-.71.43.43,0,1,1,.75-.41.7.7,0,0,0,.79.24,2.84,2.84,0,0,0,1.77-1.41,4.74,4.74,0,0,0,.29-3.93,1.34,1.34,0,0,0-1.23-1h-.25l-.12-.22a1.55,1.55,0,0,0-1.6-.71l-.3.05-.15-.27A1.4,1.4,0,0,0,45.71,33l-.25.1-.2-.18a1.15,1.15,0,0,0-1.37-.31c-.61.22-1.16,1.12-1.46,2.39a.43.43,0,0,1-.83-.19c.37-1.6,1.08-2.67,2-3a1.92,1.92,0,0,1,2,.31,2.21,2.21,0,0,1,2.43.86,2.36,2.36,0,0,1,2.09,1,2.23,2.23,0,0,1,1.78,1.57,5.63,5.63,0,0,1-.36,4.62,3.64,3.64,0,0,1-2.33,1.81A2.12,2.12,0,0,1,48.84,42Z"/><path class="cls-4" d="M45.43,40.74a1.09,1.09,0,0,0,.81.87c1.07.29,2-.75,2.31-1.14a6.69,6.69,0,0,0,1.05-4.54"/><path class="cls-5" d="M45.48,40.73a1,1,0,0,0,.64.76,1.47,1.47,0,0,0,.51.09,1.68,1.68,0,0,0,.51-.1,2.7,2.7,0,0,0,.89-.57,3.37,3.37,0,0,0,.66-.83,7.78,7.78,0,0,0,.78-2,5.15,5.15,0,0,0,.09-2.15,0,0,0,0,1,0,0h0a3.58,3.58,0,0,1,.47,2.31,5.51,5.51,0,0,1-.23,1.17,5.4,5.4,0,0,1-.46,1.12,3.19,3.19,0,0,1-.17.28,2.91,2.91,0,0,1-.21.28,3.8,3.8,0,0,1-.47.46,3,3,0,0,1-1.2.63,2.41,2.41,0,0,1-.74,0,1.86,1.86,0,0,1-.7-.25,1.29,1.29,0,0,1-.48-.55,1.05,1.05,0,0,1-.06-.65h0a0,0,0,0,1,0,0h0A0,0,0,0,1,45.48,40.73Z"/><path class="cls-4" d="M43,40.21s.06,1.32,1.29,1.27,3.37-3,3.29-6.25"/><path class="cls-5" d="M43,40.21a1.43,1.43,0,0,0,.49,1,1.16,1.16,0,0,0,1.08.13,2.68,2.68,0,0,0,.93-.68,5.79,5.79,0,0,0,.71-.94,8.32,8.32,0,0,0,1.27-4.5,0,0,0,0,1,0,0h0a0,0,0,0,1,0,0h0a4.85,4.85,0,0,1,.25,2.52A6.34,6.34,0,0,1,47.52,39,7.65,7.65,0,0,1,47,40.19,4,4,0,0,1,44.81,42a1.84,1.84,0,0,1-.44.06A1.44,1.44,0,0,1,44,42a1.51,1.51,0,0,1-.73-.41,1.43,1.43,0,0,1-.31-1.35h0a0,0,0,0,1,.05,0h0A0,0,0,0,1,43,40.21Z"/><path class="cls-5" d="M41.89,41.1a1.09,1.09,0,0,1-.88-.41,3.26,3.26,0,0,1-.18-2.5l.8-3.58.83.19-.8,3.58a2.54,2.54,0,0,0,0,1.79.24.24,0,0,0,.22.09h0a.43.43,0,0,1,0,.85Z"/><path class="cls-4" d="M41.63,38.41c-.09.48-.43,2.45.61,2.2,2.12-.5,3.07-6.08,3.07-6.08"/><path class="cls-5" d="M41.67,38.42a6.2,6.2,0,0,0-.12,1.2,2,2,0,0,0,.08.59.47.47,0,0,0,.36.36.6.6,0,0,0,.27,0,1.31,1.31,0,0,0,.27-.11,2,2,0,0,0,.47-.35,4.16,4.16,0,0,0,.7-1,12,12,0,0,0,.94-2.23,20.83,20.83,0,0,0,.6-2.35,0,0,0,0,1,0,0h0a0,0,0,0,1,0,0h0a7,7,0,0,1,0,2.54A8.84,8.84,0,0,1,45,38.33a7.29,7.29,0,0,1-.55,1.2,4.07,4.07,0,0,1-.9,1.1,2.6,2.6,0,0,1-.68.43,2,2,0,0,1-.42.12,1.33,1.33,0,0,1-.54,0,.93.93,0,0,1-.57-.35,1.13,1.13,0,0,1-.21-.47,2,2,0,0,1,0-.74,4,4,0,0,1,.44-1.22h0a0,0,0,0,1,.06,0h0A0,0,0,0,1,41.67,38.42Z"/><path class="cls-5" d="M52,39.09a24.32,24.32,0,0,1-3.65,7.18l.67-3.82,2.25-2.29Z"/></g><path class="cls-5" d="M78.12,34.36H68.76l-1.26,3.18a1,1,0,0,1-1,.64H63A1,1,0,0,1,62,36.75l8.28-19.36a1.72,1.72,0,0,1,1.58-1h3.53A1.72,1.72,0,0,1,77,17.41l8,19.38a1,1,0,0,1-.94,1.41H80.3a1,1,0,0,1-1-.65Zm-1.83-4.76-2.5-6.52a.32.32,0,0,0-.6,0l-2.56,6.52a.32.32,0,0,0,.18.42l.12,0H76a.32.32,0,0,0,.3-.44Z"/><path class="cls-5" d="M143,16.42a11.06,11.06,0,1,0,11,11.08h0A11.06,11.06,0,0,0,143,16.42Zm0,17a6,6,0,1,1,6-6,6,6,0,0,1-6,6Z"/><path class="cls-5" d="M176.33,24.44v13a1,1,0,0,1-1,1h-2.92a1.74,1.74,0,0,1-1.73-1.74h0V26.4c0-3-1.75-4.72-4-4.72-2.83,0-4.2,1.72-4.21,4.71v11a1,1,0,0,1-1,1h-2.83a1.74,1.74,0,0,1-1.73-1.74l0-19a1.14,1.14,0,0,1,1.14-1.14h1.69a2.7,2.7,0,0,1,2.7,2.7h0s1.62-2.78,6-2.78A7.75,7.75,0,0,1,176.33,24.44Z"/><path class="cls-5" d="M179.23,27.57V27.5c0-6,4.32-11,10.48-11C196.77,16.5,200,22,200,28h0a1.57,1.57,0,0,1-1.57,1.56h0l-13.24,0a4.9,4.9,0,0,0,5.17,4.15,6.63,6.63,0,0,0,4.45-1.57,1.07,1.07,0,0,1,1.38,0l1.94,1.72a1.06,1.06,0,0,1,.1,1.5l0,0a10.66,10.66,0,0,1-7.92,3.12C183.92,38.52,179.22,34.05,179.23,27.57Zm14.93-1.76c-.35-2.69-1.93-4.5-4.46-4.51s-4.11,1.77-4.59,4.5Z"/><path class="cls-5" d="M122.78,32.37a1.06,1.06,0,0,0-1.47-.26l0,0a6.77,6.77,0,0,1-4.06,1.55,5.87,5.87,0,0,1-5.87-6.1c0-.05,0-.1,0-.15s0-.1,0-.15a5.86,5.86,0,0,1,5.88-6.08,6.76,6.76,0,0,1,4.05,1.56,1.06,1.06,0,0,0,1.49-.19l0,0,1.66-2.36a1.06,1.06,0,0,0-.24-1.48,12.58,12.58,0,0,0-7.08-2.29c-6.61,0-11.6,4.69-11.6,10.93,0,0,0,.06,0,.09s0,.06,0,.09c0,6.24,5,10.95,11.58,11a12.62,12.62,0,0,0,7.08-2.27,1.06,1.06,0,0,0,.25-1.48Z"/><path class="cls-5" d="M102.73,32.35a1.06,1.06,0,0,0-1.47-.26l0,0a6.77,6.77,0,0,1-4.06,1.55,5.87,5.87,0,0,1-5.87-6.1c0-.05,0-.1,0-.15s0-.1,0-.15a5.86,5.86,0,0,1,5.88-6.08,6.76,6.76,0,0,1,4.06,1.56,1.06,1.06,0,0,0,1.48-.19l0,0,1.66-2.36a1.06,1.06,0,0,0-.24-1.48,12.59,12.59,0,0,0-7.08-2.29c-6.62,0-11.6,4.69-11.6,10.93,0,0,0,.06,0,.09s0,.06,0,.09c0,6.24,5,10.95,11.58,11a12.62,12.62,0,0,0,7.08-2.27,1.06,1.06,0,0,0,.25-1.48Z"/></svg>